<?xml version="1.0" standalone="no"?>
<!DOCTYPE svg PUBLIC "-//W3C//DTD SVG 20010904//EN"
 "http://www.w3.org/TR/2001/REC-SVG-20010904/DTD/svg10.dtd">
<svg version="1.0" xmlns="http://www.w3.org/2000/svg"
 width="800.000000pt" height="800.000000pt" viewBox="0 0 800.000000 800.000000"
 preserveAspectRatio="xMidYMid meet">
<metadata>
Created by potrace 1.14, written by Peter Selinger 2001-2017
</metadata>
<g transform="translate(0.000000,800.000000) scale(0.100000,-0.100000)"
fill="#000000" stroke="none">
<path d="M4047 7886 c-3 -8 -76 -126 -163 -262 -87 -137 -174 -275 -193 -306
-20 -32 -76 -122 -125 -200 -49 -79 -93 -145 -96 -148 -4 -3 -9 -12 -12 -20
-4 -8 -46 -77 -95 -152 -48 -76 -114 -179 -146 -230 -59 -94 -519 -822 -549
-868 -35 -56 -115 -182 -324 -513 -120 -191 -262 -416 -315 -500 -53 -84 -156
-248 -230 -364 -74 -117 -273 -433 -444 -703 -170 -269 -317 -501 -325 -515
-16 -26 -108 -171 -405 -640 -98 -154 -198 -311 -222 -350 -24 -38 -49 -79
-56 -89 -7 -11 -36 -58 -66 -105 -30 -47 -68 -108 -86 -136 -17 -27 -63 -99
-100 -160 -38 -60 -75 -117 -82 -126 -7 -8 -13 -25 -13 -37 l0 -22 3792 0
c3428 1 3794 3 3810 17 19 17 21 13 -128 278 -33 59 -70 126 -103 187 -23 43
-212 384 -259 468 -13 25 -37 68 -52 95 -15 28 -39 71 -54 97 -14 27 -38 69
-52 95 -14 25 -132 238 -262 472 -129 234 -250 453 -267 486 -18 33 -73 132
-122 220 -49 88 -109 196 -133 240 -24 44 -52 96 -63 115 -11 19 -32 58 -47
85 -15 28 -38 68 -50 90 -13 22 -46 83 -75 135 -196 356 -319 579 -335 605 -9
17 -34 61 -54 98 -20 37 -46 84 -57 105 -191 343 -219 394 -219 402 0 5 -3 10
-8 12 -4 2 -19 26 -33 53 -22 42 -113 207 -419 760 -15 28 -73 131 -128 230
-54 99 -119 216 -142 260 -24 44 -46 85 -50 90 -7 9 -21 34 -98 175 -42 78
-224 405 -257 465 -16 28 -38 67 -49 88 -21 40 -31 45 -39 23z"/>
</g>
</svg>
